REM MD5 e5f6d64b4ca58560047c99d6e987f5f5
FILE "Cyber Daisenryaku - Shutsugeki! Haruka-tai (Japan).bin" BINARY
  TRACK 01 MODE2/2352
    INDEX 01 00:00:00
  TRACK 02 AUDIO
    INDEX 00 09:43:15
    INDEX 01 09:45:15
  TRACK 03 AUDIO
    INDEX 00 10:08:62
    INDEX 01 10:10:62
  TRACK 04 AUDIO
    INDEX 00 10:31:33
    INDEX 01 10:33:33
  TRACK 05 AUDIO
    INDEX 00 11:46:67
    INDEX 01 11:48:67
REM LEADOUT 13:23:50
